<?xml version='1.0' encoding='utf-8'?>
<svg xmlns="http://www.w3.org/2000/svg" viewBox="0 0 169.56 130.3" id="svg2" height="130.3mm" width="169.56mm" version="1.0"> <metadata id="metadata14"> </metadata> <defs id="defs4"> <clipPath id="clipEmfPath1" clipPathUnits="userSpaceOnUse"> <path id="path7" d="m 1.499,-0.599599 601.098,0 0,461.690599 -601.098,0 z"/> </clipPath> <pattern y="0" x="0" height="6" width="6" patternUnits="userSpaceOnUse" id="EMFhbasepattern"/> </defs> <path transform="scale(0.28222222,0.28222222)" id="path10" d="m 193.858,250.033 c -2.549,0 -4.647,2.098 -4.647,4.647 l 0,21.585 -21.998,0 c -2.586,0 -4.684,2.099 -4.684,4.647 l 0,18.625 c 0,2.586 2.098,4.647 4.684,4.647 l 21.998,0 0,23.197 c 0,2.548 2.098,4.647 4.647,4.647 l 18.625,0 c 2.586,0 4.647,-2.099 4.647,-4.647 l 0,-23.197 22.784,0 c 2.586,0 4.647,-2.061 4.647,-4.647 l 0,-18.625 c 0,-2.548 -2.061,-4.647 -4.647,-4.647 l -22.784,0 0,-21.585 c 0,-2.549 -2.061,-4.647 -4.647,-4.647 z m 208.36,-8.507 -34.027,14.09 -14.091,33.99 14.091,33.99 34.027,14.09 34.027,-14.09 14.091,-33.99 -14.091,-33.99 z m 15.552,-73.114 c -11.767,0 -21.323,9.519 -21.323,21.286 0,11.767 9.556,21.323 21.323,21.323 11.767,0 21.324,-9.556 21.324,-21.323 0,-11.767 -9.557,-21.286 -21.324,-21.286 z m -117.184,-21.81 -0.862,0.15 c -5.171,1.049 -9.069,5.621 -9.069,11.092 0,5.472 3.898,10.044 9.069,11.093 l 0.862,0.15 0,-6.708 -5.209,0 c -0.262,0 -0.487,-0.225 -0.487,-0.487 l 0,-1.874 c 0,-0.262 0.225,-0.487 0.487,-0.487 l 7.57,0 c 0.263,0 0.45,0.225 0.45,0.487 l 0,0 0,1.874 0,7.195 0.862,-0.15 c 5.171,-1.049 9.069,-5.621 9.069,-11.093 0,-5.471 -3.898,-10.043 -9.069,-11.092 l -0.862,-0.15 0,6.708 5.209,0 c 0.262,0 0.45,0.187 0.45,0.45 l 0,1.911 c 0,0.262 -0.188,0.449 -0.45,0.449 l -7.57,0.038 c -0.262,0 -0.45,-0.225 -0.45,-0.487 l 0,0 0,-1.911 z m 1.387,-2.923 c 7.832,0 14.203,6.333 14.203,14.165 0,7.833 -6.371,14.166 -14.203,14.166 -7.795,0 -14.166,-6.333 -14.166,-14.166 0,-7.832 6.371,-14.165 14.166,-14.165 z m 0,-1.874 c -8.769,0 -15.927,7.12 -15.927,15.927 0,8.807 7.158,15.927 15.927,15.927 8.806,0 15.964,-7.12 15.964,-15.927 0,-8.807 -7.158,-15.927 -15.964,-15.927 z m 187.862,-23.609 c -19.3,0 -34.927,15.627 -34.927,34.889 0,19.3 15.627,34.927 34.927,34.927 19.299,0 34.964,-15.627 34.964,-34.927 0,-19.262 -15.665,-34.889 -34.964,-34.889 z m 62.433,-10.043 c -1.724,-0.15 -3.635,0.037 -5.771,0.599 -8.47,2.361 -14.016,8.994 -12.405,14.878 1.612,5.808 5.959,9.893 8.994,14.802 l 1.387,3.073 -0.037,0 1.499,5.434 0.037,0 0.375,3.335 c -0.075,5.809 -1.724,11.505 -0.113,17.351 1.612,5.846 9.819,8.694 18.288,6.371 8.469,-2.323 10.755,-8.619 12.404,-14.84 0.825,-3.11 0.6,-6.82 0,-10.68 l -2.023,-9.519 -1.499,-5.434 -0.038,0 -3.11,-9.181 c -1.462,-3.673 -3.186,-6.933 -5.472,-9.182 -3.485,-3.41 -7.27,-6.595 -12.516,-7.007 z m -435.496,-2.998 -33.9899,14.053 -14.1281,34.027 14.1281,33.99 33.9899,14.09 34.027,-14.09 14.091,-33.99 -14.091,-34.027 z m 369.69,-36.0138 c -1.799,-0.1499 -3.71,-0.1124 -5.696,0.0375 l -9.631,1.1617 -5.547,1.0118 0,0.0375 -9.443,2.286 c -3.785,1.1242 -7.196,2.5483 -9.631,4.6469 -4.91,4.1597 -9.557,8.9565 -7.983,17.6132 1.574,8.6562 7.72,14.7652 13.679,13.6782 5.996,-1.087 10.418,-5.059 15.589,-7.645 l 3.186,-1.124 0,0.037 5.546,-1.0114 0,-0.0374 3.335,-0.075 c 5.771,0.5998 11.318,2.7358 17.276,1.6488 5.996,-1.087 9.556,-8.9939 7.982,-17.6131 -1.574,-8.6567 -7.607,-11.5048 -13.678,-13.6783 -1.536,-0.5247 -3.223,-0.862 -4.984,-0.9744 z M 301.973,0.0749498 337.499,1.68637 c 42.909,3.89739 87.017,13.64083 127.527,27.80643 11.13,-8.0197 5.659,-4.7219 11.13,-6.3333 11.955,3.5226 66.143,28.7807 74.425,36.3881 1.949,3.7101 0.825,4.572 -1.386,9.4812 38.262,26.5697 43.283,59.5102 46.506,98.1092 7.683,82.407 8.32,215.331 2.549,239.765 -8.47,28.181 -19.412,49.991 -38.15,52.727 -18.925,3.822 -32.191,-9.631 -39.798,-25.221 -12.854,-41.672 -16.527,-86.829 -24.771,-130.263 -3.073,-6.595 -5.472,-18.812 -9.219,-19.749 -2.811,-1.199 -5.884,5.771 -8.619,12.292 l -1.874,8.507 c -7.008,34.214 -37.325,59.997 -73.638,59.997 -41.522,0 -75.175,-33.652 -75.175,-75.137 0,-20.761 8.394,-39.536 21.998,-53.14 l 8.244,-7.307 11.73,-9.781 c 2.174,-5.284 6.521,-9.481 6.596,-15.815 -6.371,-5.546 -41.972,-6.783 -68.43,-9.331 l -10.305,0 c -26.457,2.548 -62.059,3.785 -68.429,9.331 0.075,6.334 4.422,10.531 6.595,15.815 l 11.73,9.781 8.207,7.307 c 13.603,13.604 22.035,32.379 22.035,53.14 0,41.485 -33.652,75.137 -75.175,75.137 -36.313,0 -66.63,-25.783 -73.638,-59.997 l -1.874,-8.507 c -2.735,-6.521 -5.808,-13.491 -8.619,-12.292 -3.785,0.937 -6.146,13.154 -9.219,19.749 C 100.208,347.58 96.5354,392.737 83.6815,434.409 76.0741,449.999 62.808,463.452 43.8456,459.63 25.1457,456.894 14.203,435.084 5.73366,406.903 -0.0374749,382.469 0.599599,249.545 8.28196,167.138 11.5048,128.539 25.3705,89.6025 63.6324,63.0328 71.2398,46.6563 82.7446,31.7413 104.518,23.4968 c 11.467,-2.5858 24.358,-6.2583 34.439,5.996 40.51,-14.1656 84.618,-23.90904 127.527,-27.80643 z" clip-path="url(#clipEmfPath1)" style="fill:rgb(46, 40, 86);fill-opacity:1;fill-rule:evenodd;stroke:none"/> </svg>