<?xml version="1.0" encoding="utf-8"?>
<!-- Svg Vector Icons : http://www.onlinewebfonts.com/icon -->
<!DOCTYPE svg PUBLIC "-//W3C//DTD SVG 1.1//EN" "http://www.w3.org/Graphics/SVG/1.1/DTD/svg11.dtd">
<svg version="1.1" xmlns="http://www.w3.org/2000/svg" xmlns:xlink="http://www.w3.org/1999/xlink" x="0px" y="0px" viewBox="0 0 256 256" enable-background="new 0 0 256 256" xml:space="preserve">
<metadata> Svg Vector Icons : http://www.onlinewebfonts.com/icon </metadata>
<g><g><g><path fill="rgb(46, 40, 86)" d="M196.4,10.7c-1.9,0.9-7,7-10.4,12.2c-5.1,7.8-8.5,16.1-11.2,26.7c-1.5,6-3.9,19.7-3.9,22.4c0,2.7-0.4,2.8-10.6,3.9c-17.1,1.8-27.5,3.7-37.3,7.1c-19.4,6.8-33.1,20.5-39.9,39.9c-3.8,11.1-5.2,18.4-7.9,44.4c-0.2,2.2-0.5,2.8-1.3,3c-0.5,0.2-4.3,0.8-8.4,1.4c-14,1.9-24.9,5-34.5,9.7c-6.5,3.2-10.5,5.9-15.7,10.2c-5,4.2-6.2,6.9-4.6,10c2,3.8,6.9,4.1,10.1,0.6c0.8-0.8,1.6-1.4,1.8-1.4s6.1,5.6,13,12.5c8.5,8.5,12.8,12.4,13.2,12.3c0.7-0.3,4-4.7,5.7-7.6l0.8-1.5l-11.2-11.3c-9.5-9.4-11.2-11.4-10.7-11.9c0.5-0.6,10-4.9,10.9-4.9c0.2,0,3.9,3.5,8.1,7.7c6.7,6.7,7.8,7.7,8.4,7.1c0.7-0.8,3-9.4,3-11.3c0-1-0.6-2-2.6-4c-1.6-1.7-2.5-2.8-2.2-3.1c0.7-0.6,13.7-2.4,14.2-2c0.8,0.8-2.6,19.2-5,27.1c-2.9,9.1-7.9,18.1-13.9,24.8c-3.2,3.6-3.8,5.4-2.5,8c1.5,3.1,4.7,4.2,7.8,2.7c3.1-1.5,10.8-11.8,14.8-19.8c4.9-10,9.2-25.9,10.5-39.7c0.1-1.8,0.6-3.6,0.8-4c0.4-0.5,2.6-0.9,7.7-1.4c17.3-1.8,28.2-3.6,37-6.5c22.1-7.1,36.2-21.3,43.4-43.4c2.9-8.9,4.7-19.7,6.5-37c0.5-4.8,0.9-7.3,1.4-7.7c0.3-0.2,2.9-0.7,5.6-1.1c13.2-1.5,27.7-5.3,37-9.8c8.3-4,19-11.8,20.9-15.3c1.6-3,0.5-6.5-2.7-7.9c-2.6-1.2-4.3-0.7-8,2.5c-6.7,6-15.7,11.1-24.8,13.9c-7.9,2.4-26.2,5.9-27.1,5c-0.6-0.6,2.1-17.6,2.8-17.6c0.1,0,2.1,1.8,4.3,3.9c2.2,2.2,4.3,3.9,4.7,3.9c1,0,9.7-2.5,10.9-3.2c0.6-0.3,1-0.7,1-0.8s-3.7-4.1-8.3-8.7c-5.8-5.9-8.3-8.7-8.3-9.4c0-0.6,0.9-3,2.1-5.4c1.7-3.6,2.3-4.3,3.1-4.3c0.7,0,4.3,3.3,11.9,10.8c8.5,8.5,11.2,10.8,12,10.8c2.1,0,8.3-5,8.3-6.6c0-0.6-4.2-5.2-12.3-13.3c-11-11-12.3-12.4-11.8-13.2c1.3-1.8,2-3.9,1.7-5.3C203.8,10.8,200.1,8.9,196.4,10.7z M169.1,89.4c0,1.3-0.3,2.8-0.6,3.2c-0.4,0.5-2.2,0.9-5.6,1.2c-2.8,0.3-5.3,0.7-5.5,0.8c-0.2,0.1,1.9,2.6,4.7,5.4c2.8,2.8,5.1,5.5,5.1,5.9c0,1.1-2.3,13.4-2.6,13.6c-0.1,0.1-5.3-4.8-11.5-11l-11.2-11.2l-1.8,0.3c-2.4,0.4-9.7,2.8-10.3,3.5c-0.4,0.4,3.7,4.8,15.1,16.1l15.6,15.6l-0.6,1.6c-0.9,2.1-4.6,8.6-5.2,8.9c-0.3,0.2-8.5-7.7-18.3-17.5c-12.4-12.3-18.1-17.8-18.8-17.8c-1.1,0-8,6.3-8,7.4c0,0.4,8.1,8.8,18,18.7c9.9,9.9,18,18.2,18,18.5c0,0.6-4.3,3.6-7.8,5.4l-2.5,1.3L119,143.2c-11.3-11.3-16.5-16.1-16.8-15.8c-0.4,0.4-2.8,6.7-3.9,10.3c-0.3,0.9,1.1,2.4,12,13.5c7.8,7.8,12.2,12.5,11.9,12.8c-0.4,0.4-11.8,2.8-13.2,2.8c-0.3,0-3.5-3-7.1-6.5c-4.5-4.4-6.7-6.3-6.9-5.9c-0.1,0.4-0.6,3.6-1.1,7.2c-0.6,4.5-1.1,6.8-1.5,7.1c-0.4,0.2-1.8,0.4-3.1,0.4h-2.5l0.3-4.3c0.8-11.1,3-24.5,5.2-32.6c3-11,7.1-18.3,13.7-25.2c7.7-7.8,15.5-12,28.8-15.4c7-1.8,25.5-4.4,31.7-4.6l2.4,0V89.4L169.1,89.4z" /></g></g></g>
</svg>